<svg width="194" height="50" viewBox="0 0 194 50" fill="none" xmlns="http://www.w3.org/2000/svg">
<path fill-rule="evenodd" clip-rule="evenodd" d="M25.4904 48.5587C35.8826 48.5587 45.0983 41.696 48.0394 31.696C39.8604 33.0591 31.042 29.671 25.4904 23.6567C19.9388 29.671 11.1205 33.0591 2.94141 31.696C6.07866 41.892 15.0983 48.5587 25.4904 48.5587Z" fill="#057475"/>
<path fill-rule="evenodd" clip-rule="evenodd" d="M49.0197 26.7939C49.0197 15.8017 43.1739 5.72053 32.1569 2.48022C33.1687 8.551 31.4243 15.1719 28.2354 20.3234C33.5069 25.846 41.5311 28.6661 49.0197 26.7939Z" fill="#69C5C5"/>
<path fill-rule="evenodd" clip-rule="evenodd" d="M22.5492 20.1273C19.2811 15.0995 17.6293 8.47031 18.6276 2.48022C7.69973 5.75859 1.96094 15.8948 1.96094 26.7939C9.41518 28.6575 17.5239 25.9064 22.5492 20.1273Z" fill="#69C5C5"/>
<path fill-rule="evenodd" clip-rule="evenodd" d="M25.4901 16.0098C27.0588 13.0686 27.8431 9.73529 27.8431 6.20588C27.8431 4.63725 27.647 3.06863 27.2549 1.5C26.6666 1.5 26.0784 1.5 25.4901 1.5C24.9019 1.5 24.3137 1.5 23.7254 1.5C23.3333 3.06863 23.1372 4.63725 23.1372 6.20588C23.1372 9.73529 24.1176 13.0686 25.4901 16.0098Z" fill="#057475"/>
<g clip-path="url(#clip0_3_592)">
<path d="M78.539 30.1629C78.539 29.0409 77.219 28.6779 75.272 28.1829L72.467 27.4899C68.639 26.5329 65.207 25.1469 65.207 20.5269C65.207 15.8739 69.266 13.2999 74.15 13.2999C78.473 13.2999 81.212 14.5209 82.697 15.3789V21.3519C80.486 19.9659 76.856 18.6789 73.952 18.6789C72.236 18.6789 71.213 19.1079 71.213 20.0979C71.213 21.2529 72.566 21.6159 74.81 22.2099L77.252 22.8699C80.684 23.7939 84.314 25.0479 84.314 29.7999C84.314 34.2879 80.387 36.7299 75.14 36.7299C71.015 36.7299 67.682 35.4099 66.164 34.3209V28.5459C68.408 30.1959 72.5 31.5489 75.503 31.5489C77.813 31.5489 78.539 31.0539 78.539 30.1629ZM89.6208 17.2929C87.4428 17.2929 86.1228 16.3029 86.1228 14.6199C86.1228 12.9369 87.4428 11.9799 89.6208 11.9799C91.8318 11.9799 93.0858 12.9369 93.0858 14.6199C93.0858 16.3029 91.8318 17.2929 89.6208 17.2929ZM86.9478 18.9099H92.2278V36.3999H86.9478V18.9099ZM112.143 32.6049C112.143 39.5019 107.886 41.9439 102.969 41.9439C100.197 41.9439 97.8208 41.1519 96.3688 40.2609V34.9479C97.9858 36.1689 100.131 36.9939 102.375 36.9939C105.873 36.9939 106.863 35.4759 106.863 33.4299V33.2319C105.741 33.9579 104.289 34.5189 102.375 34.5189C98.2498 34.5189 95.0818 31.7469 95.0818 27.3249C95.0818 21.2199 99.9988 18.5799 104.751 18.5799C108.051 18.5799 110.394 19.4379 112.143 20.1309V32.6049ZM100.56 26.5989C100.56 29.0079 102.177 29.7669 103.926 29.7669C104.949 29.7669 106.005 29.5029 106.863 29.1729V23.5959C106.236 23.4309 105.51 23.2989 104.718 23.2989C102.474 23.2989 100.56 24.2889 100.56 26.5989ZM124.245 23.6949C122.892 23.6949 121.605 23.9919 120.648 24.3879V36.3999H115.368V18.9099H120.318V20.9889C121.704 19.7349 123.948 18.5799 126.654 18.5799C130.977 18.5799 132.528 21.3519 132.528 25.1799V36.3999H127.248V26.5989C127.248 24.9159 126.489 23.6949 124.245 23.6949ZM143.919 31.6149C145.272 31.6149 146.559 31.3179 147.516 30.9219V18.9099H152.796V36.3999H147.846V34.3209C146.46 35.5749 144.216 36.7299 141.51 36.7299C137.187 36.7299 135.636 33.9579 135.636 30.1299V18.9099H140.916V28.7109C140.916 30.3939 141.675 31.6149 143.919 31.6149ZM164.649 23.6949C163.428 23.6949 162.273 24.0249 161.382 24.3879V36.3999H156.102V18.9099H161.052V20.9889C162.405 19.7349 164.484 18.5799 167.058 18.5799C169.599 18.5799 171.117 19.6359 171.909 21.3519C173.196 19.9659 175.473 18.5799 178.278 18.5799C182.37 18.5799 183.822 21.3519 183.822 25.1799V36.3999H178.542V26.5989C178.542 24.8829 177.882 23.6949 175.869 23.6949C174.648 23.6949 173.46 24.0249 172.569 24.3879C172.602 24.6519 172.602 24.9159 172.602 25.1799V36.3999H167.322V26.5989C167.322 24.8829 166.662 23.6949 164.649 23.6949ZM189.779 36.8949C187.964 36.8949 186.512 35.4429 186.512 33.6279C186.512 31.8129 187.964 30.3279 189.779 30.3279C191.594 30.3279 193.079 31.8129 193.079 33.6279C193.079 35.4429 191.594 36.8949 189.779 36.8949Z" fill="#057475"/>
</g>
<defs>
<clipPath id="clip0_3_592">
<rect width="129" height="50" fill="white" transform="translate(65)"/>
</clipPath>
</defs>
</svg>
