<svg width="40" height="40" viewBox="0 0 40 40" fill="none" xmlns="http://www.w3.org/2000/svg">
<path d="M31.0781 10.1831C31.0612 10.3519 31.0512 10.5444 31.0469 10.7531L28.6506 11.8975C28.315 11.8425 26.6506 11.9394 24.1681 10.7144C23.5387 10.4037 22.9238 10.2387 22.3331 10.2387C21.7986 10.2395 21.2719 10.3669 20.7962 10.6106C20.1694 10.475 19.2663 10.1275 18.7381 10.1287C17.5431 10.135 14.8262 11.1081 14.0737 11.1913C13.3375 11.2719 12.5794 11.4744 11.8163 11.7969C10.4294 11.3931 8.69062 10.7337 7.75937 10.3694L1.25 5.625V20.8812L6.03375 23.1575C6.10313 23.0762 6.1825 22.9512 6.26875 22.7962L6.41688 22.865C6.48938 23.0525 6.56938 23.2394 6.65688 23.425C6.13188 24.3087 6.06937 25.3044 6.48875 26.17C6.84812 26.9106 7.5175 27.4306 8.26312 27.5763C8.30375 28.0375 8.45875 28.4838 8.72 28.8706C9.18875 29.5625 9.93375 29.9756 10.7144 29.9756C10.785 29.9756 10.8556 29.9725 10.9256 29.9644C11.0369 30.265 11.2 30.545 11.4119 30.7875C11.8831 31.3294 12.5431 31.64 13.2219 31.64C13.2719 31.64 13.3206 31.6388 13.37 31.635C13.4563 31.9625 13.6031 32.2725 13.8081 32.5487C14.28 33.1862 15.0081 33.5656 15.7569 33.5656C16.2219 33.5656 16.6662 33.4231 17.0581 33.1562C17.8156 33.6425 18.4744 33.9844 19.0587 34.1944C19.3519 34.3137 19.6569 34.375 19.9681 34.375C20.7044 34.375 21.4187 34.0312 21.9287 33.43C22.1181 33.2062 22.2719 32.9562 22.3844 32.6887C22.6047 32.7554 22.8336 32.7895 23.0638 32.79C23.8463 32.79 24.5881 32.4069 25.1012 31.7369C25.345 31.4193 25.5215 31.0555 25.62 30.6675C25.6738 30.6713 25.7269 30.6731 25.78 30.6731C26.6844 30.6731 27.55 30.1425 28.0369 29.2881C28.2921 28.8437 28.4276 28.3406 28.43 27.8281C29.3237 27.695 30.1106 27.0594 30.4938 26.1325C30.8713 25.2194 30.7688 24.2119 30.2419 23.3719L32.6763 22C32.7388 22.2138 32.8 22.4106 32.8594 22.5706L38.75 19.4362V6.65125L31.0781 10.1831ZM31.0775 12.0812C31.1162 12.7575 31.1869 13.5219 31.2781 14.32C30.7781 13.48 30.1469 13.0969 29.3631 12.9062L31.0775 12.0812ZM27.81 26.9287C26.4675 26.4669 23.6731 23.1819 23.6731 23.1819H23.7281C24.0125 23.1619 24.6269 22.8625 25.3163 23.0056C24.2338 22.0756 23.0431 22.8625 22.2325 22.3806C22.4206 22.9837 23.325 23.1738 23.5569 23.1813L26.2344 26.295C27.4469 27.7044 26.6025 29.4481 25.3869 29.7256C24.5712 29.3288 22.2681 26.5894 22.2681 26.5894C22.3469 26.575 22.8138 26.4288 23.2894 26.4913C22.1913 25.67 20.9463 26.3825 20.2075 25.8669C20.6263 26.9013 22.0056 26.6362 22.15 26.6112L23.5825 28.44C24.7287 29.9025 23.8281 31.5919 22.6106 31.8206C21.5312 31.4412 20.8306 30.0912 20.8306 30.0912C20.9394 30.0737 21.3031 29.9119 21.8206 29.9869C20.9 29.18 19.8281 29.9119 19.1838 29.4525C19.5819 30.32 20.5744 30.1225 20.63 30.1163C21.6225 31.6794 20.5931 33.3094 19.3631 33.3581H19.3619L19.3606 33.3588C18.6219 33.2306 17.8481 32.64 16.9744 32.0338C17.2744 31.7013 17.5394 31.1169 17.5394 31.1169C18.4169 29.5281 17.2781 28.1231 16.1025 28.2437C17.0562 28.5044 17.7713 29.7219 17.0269 31.0737L16.7 31.6237C16.345 32.2706 15.7906 32.6612 15.3831 32.6131C14.7556 32.5369 13.8712 31.6206 14.2431 30.3281C14.3869 30.1969 15.7731 28.0763 15.7731 28.0763C16.7262 26.5413 15.6562 25.0719 14.4775 25.1219C15.4162 25.4387 16.0744 26.6975 15.265 28.0037L14.1381 29.7606C13.7538 30.3819 13.2563 30.7337 12.7819 30.6687C12.0456 30.5687 11.5294 29.6706 11.6475 28.7438C11.6412 28.7494 12.4588 27.835 12.4588 27.835C13.545 26.4156 12.615 24.8306 11.4381 24.7475C12.3425 25.1688 12.8812 26.4962 11.9581 27.7044L11.5594 28.1931C11.1219 28.7669 10.595 29.0588 10.1338 28.9438C9.32875 28.7419 8.91 27.2356 9.29062 26.825C9.59 26.5019 10.4306 25.4787 10.4306 25.4787C11.5162 24.0587 10.5875 22.4744 9.40938 22.39C10.3144 22.8125 10.8531 24.14 9.93 25.3487L9.53125 25.8363C9.09125 26.415 8.5625 26.7056 8.09812 26.5875C7.13062 26.3425 6.6475 24.8488 7.57312 23.6363C7.57312 23.6363 7.25875 22.6375 7.11688 22.2106L6.65062 21.9944C7.74375 19.4475 9.395 13.8263 9.47125 11.9588C10.2763 12.2456 12.4012 12.8569 12.6269 12.8581L12.6256 12.8594C14.9131 12.1406 17.3106 12.22 18.4044 11.7975C18.7588 11.6625 19.4638 11.6537 20.2113 12.0812C19.7444 12.4906 19.3031 12.9781 18.845 13.4325C17.75 14.5194 13.6788 16.2144 14.4638 17.9969C15.1413 19.535 17.0494 21.1087 20.25 18.6381L22.05 18.3906L24.8494 19.7719L28.4369 23.4562C29.7163 24.7675 28.9919 26.5475 27.81 26.9287ZM28.71 22.8694C28.2988 22.1006 27.0169 20.84 25.8069 19.8094L25.7994 19.8019C26.3575 19.8244 26.9431 18.9256 27.7 18.8563C27.1712 18.4525 26.295 18.9188 26.0219 18.9925C24.5162 19.3975 22.1762 17.5031 22.1762 17.5031L19.9375 17.8256C19.9375 17.8256 17.275 21.075 15.0319 18.3981C13.8138 16.9444 18.2281 15.0456 19.3156 13.965C20.7088 12.5806 21.95 10.8869 24.2419 12.0406C26.1456 13.0006 26.8956 12.9412 29.4494 13.3856C30.2106 13.5187 30.7381 13.8675 31.3037 14.5481C31.57 16.7881 32.0006 19.2725 32.4137 21.0013C32.2006 21.1806 30.3738 22.4094 28.71 22.8694Z" fill="#084E9D"/>
</svg>
