<svg width="40" height="40" viewBox="0 0 40 40" fill="none" xmlns="http://www.w3.org/2000/svg">
<path d="M27.1222 32.4163C28.1712 32.8268 29.1465 33.1398 30.0343 33.3591L30.0467 33.3621C31.6358 33.7535 32.8983 33.8323 33.7957 33.6716C34.049 33.6263 34.2625 33.5648 34.4425 33.4905C34.8817 33.3061 35.123 33.044 35.2503 32.7728C35.3965 32.4613 35.4642 32.0095 35.3793 31.395C35.3337 31.0653 35.244 30.6881 35.0987 30.2596C35.0765 30.1945 35.0532 30.1287 35.0288 30.062C34.8315 29.5235 34.5605 28.9412 34.2172 28.3227L34.1987 28.2895C34.1493 28.2011 34.0985 28.112 34.0462 28.022C33.5885 27.2351 33.0193 26.3955 32.3432 25.5178L32.336 25.5083C30.0083 22.4898 26.5192 19.1601 22.3277 16.1826C17.8847 13.0265 13.584 10.9276 10.2547 10.0481C10.159 10.0228 10.0644 9.9986 9.97096 9.97548L9.95345 9.9713C8.36416 9.57993 7.10166 9.50095 6.20438 9.66158C5.84521 9.72588 5.56635 9.8227 5.34961 9.94218C5.04105 10.1125 4.85846 10.3286 4.7497 10.5604C4.56225 10.9599 4.51386 11.5727 4.70985 12.4117C4.77133 12.6738 4.85711 12.96 4.9712 13.2713C5.0977 13.6166 5.2543 13.9793 5.44043 14.3575C5.46703 14.4115 5.49433 14.466 5.52235 14.5211L5.57103 14.6159C5.62785 14.7256 5.68696 14.8364 5.74836 14.9481C6.23715 15.8379 6.8755 16.8015 7.65683 17.8155L7.66155 17.8216C8.50133 18.911 9.49785 20.048 10.6337 21.201C10.8916 21.4628 11.1312 21.704 11.3537 21.9258L11.3938 21.4121C11.5612 19.2686 11.6449 18.1968 12.3717 17.8148C13.0986 17.4328 13.9872 17.9935 15.7645 19.115L16.2244 19.405C16.7295 19.7238 16.982 19.8831 17.2728 19.923C17.5637 19.9626 17.86 19.8785 18.4525 19.7101L18.992 19.5568C21.0773 18.9643 22.12 18.668 22.678 19.226C23.236 19.784 22.9397 20.8265 22.3472 22.9118L22.1938 23.4513C22.0253 24.044 21.9412 24.3403 21.981 24.6311C22.0208 24.922 22.1802 25.1745 22.4988 25.6796L22.789 26.1393C23.9105 27.9166 24.4712 28.8053 24.0892 29.5321C23.7072 30.2591 22.6353 30.3428 20.4918 30.5102L19.9373 30.5535C19.3282 30.601 19.0237 30.6248 18.7573 30.7646C18.491 30.9046 18.2933 31.1448 17.8977 31.6255L17.5375 32.0628C16.1452 33.7538 15.4491 34.5993 14.6551 34.4907C13.861 34.382 13.4949 33.391 12.7627 31.4092L12.5732 30.8963C12.3652 30.3331 12.2611 30.0516 12.0567 29.8471C11.8524 29.6428 11.5708 29.5388 11.0076 29.3306L10.4948 29.1413C8.51296 28.409 7.522 28.043 7.41328 27.2488C7.30456 26.4548 8.15005 25.7586 9.84105 24.3665L10.0731 24.1755C9.71443 23.8236 9.3096 23.4193 8.8527 22.9555C7.46638 21.5481 6.2467 20.1331 5.23908 18.76C5.03515 18.482 4.8399 18.2058 4.65371 17.9318C4.45535 17.6396 4.26728 17.3501 4.08995 17.0633C3.9976 16.914 3.90816 16.7655 3.82171 16.6179C3.6534 16.3304 3.49638 16.0462 3.35111 15.7657C3.296 15.6593 3.24215 15.5526 3.18966 15.4456C2.97016 14.9984 2.78071 14.5596 2.62383 14.1315C2.48541 13.7537 2.36821 13.3725 2.2787 12.9922C1.98523 11.7484 1.995 10.5458 2.48648 9.49843C2.89983 8.61753 3.57445 8.01347 4.38493 7.63052C4.85205 7.40982 5.3643 7.26253 5.89768 7.17805C7.33135 6.95095 9.04965 7.14392 10.8933 7.63098C14.5974 8.6096 19.1708 10.8736 23.7753 14.1445C28.385 17.419 32.2425 21.1461 34.7488 24.5568C35.5782 25.6855 36.2742 26.7991 36.8003 27.8673C36.9685 28.2086 37.1193 28.5453 37.2515 28.8765C37.3295 29.0718 37.4012 29.2651 37.466 29.4563C37.9763 30.9598 38.1328 32.515 37.5135 33.8348C37.0597 34.8018 36.3028 35.428 35.3957 35.7998C35.0298 35.9508 34.6397 36.0603 34.2362 36.1327C33.893 36.194 33.5328 36.2305 33.1585 36.244C33.1005 36.2462 33.0423 36.2477 32.9842 36.2487C32.741 36.2527 32.491 36.2475 32.2345 36.233C31.7338 36.2048 31.2088 36.142 30.6635 36.0467C29.2893 35.8065 27.7853 35.3603 26.2112 34.7445C25.5683 34.493 25.251 33.7678 25.5027 33.125C25.7542 32.4821 26.4792 32.1648 27.1222 32.4163Z" fill="#084E9D"/>
<g opacity="0.5">
<path fill-rule="evenodd" clip-rule="evenodd" d="M32.7754 4.01478C33.3196 4.43962 33.4162 5.22515 32.9914 5.7693L32.8059 6.00698C33.0122 7.10363 33.5152 8.11833 34.2572 8.93252C34.7222 9.44278 34.6854 10.2334 34.1752 10.6984C33.6649 11.1634 32.8742 11.1267 32.4094 10.6164C31.6586 9.79257 31.0829 8.82937 30.7077 7.78752C30.5337 7.89152 30.3576 7.98625 30.1749 8.07257C29.9752 8.1669 29.7731 8.24865 29.5641 8.32163C30.1057 9.3071 30.4504 10.3993 30.5716 11.5342C30.6447 12.2206 30.1476 12.8365 29.4611 12.9097C28.7746 12.9829 28.1587 12.4857 28.0856 11.7993C27.9674 10.6911 27.5494 9.64658 26.8881 8.78125L26.6246 8.77238C25.9346 8.74917 25.3941 8.17102 25.4172 7.48105C25.4406 6.79108 26.0187 6.25058 26.7086 6.2738L27.3874 6.29663C28.2642 6.12353 28.7167 5.99652 29.1069 5.81218C29.4987 5.62703 29.8896 5.35472 30.5919 4.78018L31.0209 4.23082C31.4457 3.68667 32.2312 3.58993 32.7754 4.01478Z" fill="#084E9D"/>
</g>
</svg>
