<svg width="40" height="40" viewBox="0 0 40 40" fill="none" xmlns="http://www.w3.org/2000/svg">
<path d="M32.9221 6.478C30.9173 4.47031 28.4512 2.91449 25.6983 1.98453C25.6983 1.98453 25.6983 1.98453 25.6951 1.98453C24.6632 1.63237 23.5947 1.37122 22.4895 1.20818C21.629 1.07845 20.7463 1.00869 19.8489 1.00219C19.7984 1 19.7508 1 19.7 1C16.5675 1 13.6094 1.77298 11.0137 3.1402C9.33472 4.02005 7.80512 5.14738 6.478 6.478C3.09528 9.85781 1 14.5398 1 19.7C1 24.8597 3.09528 29.5422 6.478 32.922C9.85781 36.3051 14.5401 38.4 19.7 38.4C20.2204 38.4 20.7346 38.3776 21.2438 38.3379C22.2112 38.2594 23.1561 38.1046 24.0755 37.8855C27.4839 37.0672 30.5292 35.3179 32.9221 32.9221C36.3048 29.5422 38.4 24.8597 38.4 19.7C38.4 14.5398 36.3048 9.85781 32.9221 6.478ZM23.3529 4.23371C23.1954 4.00851 22.5965 4.00851 21.9972 3.87995C21.4777 3.77038 21.2441 3.59046 21.4395 3.34466C22.1337 3.41771 22.8165 3.52939 23.4824 3.68586C23.9918 3.80632 24.4955 3.95131 24.9844 4.11764C25.0025 4.12363 25.0193 4.13174 25.0373 4.1378C24.9741 4.37162 24.9136 4.57119 24.8037 4.64971C24.7645 4.68076 24.7195 4.69172 24.663 4.68733C24.1346 4.60771 24.2329 5.09998 23.6848 5.51043C23.1334 5.92358 22.8213 5.38939 23.274 4.68733C23.412 4.47243 23.426 4.33233 23.3529 4.23371ZM8.06809 31.3319C5.08982 28.3507 3.24948 24.248 3.24948 19.7C3.24948 15.158 5.08683 11.0581 8.05969 8.07678C8.06246 8.07459 8.06546 8.07138 8.06816 8.06809C8.67518 7.46195 9.33092 6.90533 10.0252 6.39941C9.4299 7.02089 8.49746 8.04406 8.4827 8.24632C8.4773 8.28833 8.46882 8.36787 8.45765 8.47416C8.39848 9.00513 8.27204 10.1897 8.25487 10.3723C8.23252 10.5887 8.52529 10.6874 8.76678 10.8422C8.94399 10.9545 8.77255 11.8174 8.76678 12.428C8.7586 13.0299 9.41383 14.4864 9.68936 14.4412C9.9565 14.3796 9.25357 12.1892 9.25634 12.2002C9.25634 12.2002 9.27899 11.4293 9.59645 11.4239C9.91428 11.4206 9.78476 12.1947 9.847 12.6979C9.90317 13.1956 10.6339 14.1124 10.8394 14.3458C11.0392 14.5791 10.7298 15.6089 10.7721 15.7827C10.7971 15.9463 12.7348 17.259 12.9177 17.3374C13.0864 17.4051 13.6234 17.2556 13.9131 17.332C14.1996 17.4083 14.211 18.063 14.4389 18.1982C14.6638 18.3273 15.7268 18.4592 15.9631 18.5361C16.1992 18.6119 16.1345 19.5053 16.4185 19.7086C16.7053 19.9081 17.5965 20.9341 17.5965 20.9341C17.5965 20.9341 18.3475 20.5656 18.5333 20.462C18.7213 20.3546 19.0536 20.7406 19.0536 20.7406C19.0536 20.7406 19.0029 22.3013 18.9803 22.5989C18.9607 22.897 17.7543 23.7741 17.7543 23.7741C17.7543 23.7741 17.5826 25.3212 17.5995 25.911C17.6191 26.5107 18.7555 27.9868 18.7578 27.9868C18.7611 27.9901 19.0868 29.1087 19.1885 29.2832C19.3009 29.4745 21.1368 30.9567 21.1428 30.9567C21.1428 31.0014 20.8757 33.8131 20.8193 34.3086C20.7658 34.8309 21.1368 35.0451 21.1036 35.3493C21.1003 35.394 21.0921 35.4523 21.0864 35.5286C21.0697 35.6753 21.0471 35.8759 21.0224 36.0944C20.5865 36.1288 20.1455 36.15 19.7001 36.15C15.1523 36.1502 11.0499 34.3099 8.06809 31.3319ZM31.3319 31.3319C30.2749 32.3862 29.0781 33.2998 27.768 34.0368C27.5588 34.1557 27.3452 34.2669 27.1304 34.3759C27.2948 34.0489 27.4411 33.7376 27.4923 33.5468C27.5062 33.4929 27.5147 33.4476 27.5117 33.4176C27.4978 33.1048 28.2793 32.5259 28.7464 32.3792C29.216 32.2331 29.3591 32.0614 29.5897 31.356C29.8208 30.6506 29.9835 29.4715 29.9751 28.9967C29.9836 28.5159 31.0016 27.1716 31.0043 26.7077C31.0269 26.2384 30.7936 25.8867 30.4646 25.5798C30.1466 25.2702 29.3087 25.2763 29.0838 25.2168C28.8674 25.1612 28.769 24.6684 28.4059 24.6041C28.0432 24.5397 27.6834 24.9224 27.2506 24.7981C26.8145 24.6716 27.0421 24.2835 27.3517 24.0698C27.6581 23.8589 27.3798 23.0046 27.1156 22.4759C26.8538 21.9493 26.2465 21.964 25.715 21.9831C25.1835 22.006 25.1216 21.3061 24.6266 20.5658C24.1316 19.8239 23.1615 19.9755 22.7061 19.8795C22.2534 19.7841 21.5953 19.1969 21.1877 19.1037C20.7856 19.0078 19.6831 20.3608 19.4383 20.4055C19.1939 20.448 19.1657 20.0261 18.8142 19.8794C18.4656 19.7333 18.235 20.4392 17.5993 20.0315C16.9667 19.6243 17.5402 18.3444 17.5881 17.6896C17.6328 17.0366 17.04 17.7708 16.3396 17.4836C15.6421 17.1974 16.1542 16.7558 16.5563 16.1905C16.9556 15.6225 17.0368 15.3357 16.3734 15.4088C15.7124 15.484 15.6227 15.1276 15.5271 15.5914C15.4314 16.0581 15.091 16.5699 14.2138 16.4604C13.3389 16.3536 13.2942 15.5326 13.3449 14.8942C13.3981 14.2564 13.5728 14.2641 14.0451 13.477C14.5202 12.6925 14.869 12.7094 15.2965 12.5044C15.7266 12.2956 15.7604 12.5863 16.1174 12.5491C16.4745 12.5131 16.4886 12.3409 16.6293 12.0651C16.7669 11.7925 16.916 12.1381 17.9171 12.2112C18.9185 12.2875 18.5752 12.3687 18.5752 12.3687C18.5752 12.3687 18.1759 13.019 18.9379 14.0085C19.6999 14.9984 19.8123 13.2665 19.863 12.4817C19.9107 11.6911 20.2762 11.5003 21.1116 11.0337C21.9385 10.5693 22.0901 9.82355 23.0013 9.40813C23.9236 8.98622 25.7487 8.6575 26.2576 8.35063C26.7779 8.03281 25.9874 6.86296 26.7018 6.80138C27.4135 6.73703 28.198 6.90825 28.9543 6.78721C28.957 6.78721 28.957 6.78721 28.96 6.78721C29.2789 6.73812 29.4106 6.6062 29.4361 6.45032C30.1075 6.94419 30.7428 7.48225 31.3318 8.06824C34.3102 11.0495 36.1502 15.1521 36.1502 19.7001C36.1502 24.2482 34.3103 28.3507 31.3319 31.3319Z" fill="#084E9D"/>
</svg>
